<svg width="549" height="620" viewBox="0 0 549 620" fill="none" xmlns="http://www.w3.org/2000/svg">
<path d="M2 615L76.5 571.5L135.5 557L173 546L209 488L194.5 400L209 372.5V350.5L173 300" stroke="#FCBB59" stroke-width="5"/>
<path d="M27 617L110.5 583.5L226 564L175.5 593L157.5 617" stroke="#FCBB59" stroke-width="5"/>
<path d="M183 615L193.958 595.318L275.644 561L299.552 585.729L313 608.944V615" stroke="#FCBB59" stroke-width="5"/>
<path d="M348 613V573.5L357.5 553L419 580.5L437 606V613" stroke="#FCBB59" stroke-width="5"/>
<path d="M454 612L444.5 580.5L419 553L536 612" stroke="#FCBB59" stroke-width="5"/>
<path d="M547 611L481.5 559.5L431 534L344.5 514.5L322.5 494L273 402.5V356.5V307.5L286.5 288L303.5 270" stroke="#FCBB59" stroke-width="5"/>
<path d="M262.5 261.5L249 296.5L234.5 261.5" stroke="#FCBB59" stroke-width="5"/>
<path d="M213 262.5L220 296.5L199.5 285.5L168 262.5" stroke="#FCBB59" stroke-width="5"/>
<path d="M137 273.5L166.5 292L173.5 300.5" stroke="#FCBB59" stroke-width="5"/>
<path d="M218.5 195.5C218.5 217.993 206.602 238.461 187.162 253.353C167.721 268.246 140.799 277.5 111 277.5C81.2012 277.5 54.2787 268.246 34.8376 253.353C15.3979 238.461 3.5 217.993 3.5 195.5C3.5 173.007 15.3979 152.539 34.8376 137.647C54.2787 122.754 81.2012 113.5 111 113.5C140.799 113.5 167.721 122.754 187.162 137.647C206.602 152.539 218.5 173.007 218.5 195.5Z" fill="#D8FFA6" stroke="#258802" stroke-width="3"/>
<path d="M383.5 135C383.5 208.603 318.042 268.5 237 268.5C155.958 268.5 90.5 208.603 90.5 135C90.5 61.3968 155.958 1.5 237 1.5C318.042 1.5 383.5 61.3968 383.5 135Z" fill="#D8FFA6" stroke="#258802" stroke-width="3"/>
<path d="M487.5 172C487.5 200.947 471.329 227.287 444.917 246.446C418.508 265.604 381.949 277.5 341.5 277.5C301.051 277.5 264.492 265.604 238.083 246.446C211.671 227.287 195.5 200.947 195.5 172C195.5 143.053 211.671 116.713 238.083 97.5537C264.492 78.3957 301.051 66.5 341.5 66.5C381.949 66.5 418.508 78.3957 444.917 97.5537C471.329 116.713 487.5 143.053 487.5 172Z" fill="#D8FFA6" stroke="#258802" stroke-width="3"/>
</svg>
